<svg id="logo" width="147" height="40" xmlns="http://www.w3.org/2000/svg"><path style="transform:translate(var(--translate-text-x, 0), var(--translate-text-y, 0))" fill="var(--color-text, #283645)" d="M72.2 18.43c0-.34.13-.66.36-.9.24-.23.56-.37.9-.38h7.21c5.11 0 8.48 2.68 8.48 7.06v.06c0 4.8-4.08 7.29-8.9 7.29h-5.5v6.73a1.24 1.24 0 0 1-.33.97 1.29 1.29 0 0 1-.95.4 1.3 1.3 0 0 1-.94-.4 1.26 1.26 0 0 1-.34-.97V18.43Zm8.15 10.86c3.75 0 6.2-1.98 6.2-4.94v-.06c0-3.18-2.41-4.83-6.02-4.83h-5.72v9.79l5.54.04Zm13.67-11.02a1.24 1.24 0 0 1 .33-.97 1.29 1.29 0 0 1 .95-.4 1.3 1.3 0 0 1 .95.4 1.26 1.26 0 0 1 .33.97v20.02a1.25 1.25 0 0 1-.33.96 1.28 1.28 0 0 1-.95.42 1.3 1.3 0 0 1-.95-.42 1.26 1.26 0 0 1-.33-.96V18.27Zm9.18.03a1.25 1.25 0 0 1 .38-.87c.23-.23.55-.36.88-.37h.36a1.57 1.57 0 0 1 1.3.73l13.74 17.23V18.24c0-.33.13-.64.37-.87a1.26 1.26 0 0 1 1.76 0c.23.23.36.54.36.87v20.1a1.12 1.12 0 0 1-.7 1.07 1.16 1.16 0 0 1-.46.09h-.13a1.74 1.74 0 0 1-.76-.23 1.7 1.7 0 0 1-.57-.54l-14.06-17.64v17.24a1.24 1.24 0 0 1-.35.85c-.23.23-.53.37-.86.38a1.26 1.26 0 0 1-.87-.37 1.21 1.21 0 0 1-.35-.86V18.3h-.04Zm25.54-.03a1.24 1.24 0 0 1 .33-.97 1.29 1.29 0 0 1 .95-.4 1.3 1.3 0 0 1 .95.4 1.25 1.25 0 0 1 .33.97v12.17l12.9-13a1.5 1.5 0 0 1 1-.45 1.28 1.28 0 0 1 1.24 1.25 1.26 1.26 0 0 1-.42.89l-8.04 7.82 8.67 10.42c.23.26.35.59.35.93a1.29 1.29 0 0 1-.85 1.18 1.26 1.26 0 0 1-1.08-.08 1.23 1.23 0 0 1-.43-.4l-8.46-10.37-4.88 4.8v4.84a1.24 1.24 0 0 1-.37.89 1.28 1.28 0 0 1-.9.37 1.29 1.29 0 0 1-.9-.37 1.24 1.24 0 0 1-.38-.89v-20h-.01Z"/><path style="display:var(--visibility-glasses, none)" fill="var(--color-glasses, #d22856)" d="m53.9 6.59 5.03 21.14a1.42 1.42 0 0 1-.22 1.3 1.36 1.36 0 0 1-1.18.53h-4.01a11.63 11.63 0 0 1-11.49 10.32c-5.92 0-10.8-4.5-11.49-10.32h-1.96A11.75 11.75 0 0 1 16.97 40c-6 0-10.94-4.57-11.61-10.47H1.45A1.36 1.36 0 0 1 .3 29a1.42 1.42 0 0 1-.24-1.27L5.1 6.6C5.45 4.26 7.64 0 13.49 0c.38 0 .76.16 1.03.43a1.5 1.5 0 0 1 0 2.1 1.45 1.45 0 0 1-1.03.44c-4.71 0-5.44 3.7-5.5 4.1L3.34 26.6h2.04a11.75 11.75 0 0 1 11.59-10.3c5.94 0 10.84 4.48 11.6 10.3h1.99a11.63 11.63 0 0 1 11.47-10.19c5.89 0 10.75 4.46 11.48 10.22v-.05h2.14L51 7.08c-.07-.42-.77-4.1-5.5-4.1a1.45 1.45 0 0 1-1.03-.44 1.5 1.5 0 0 1-.43-1.05c0-.4.15-.78.43-1.05A1.45 1.45 0 0 1 45.5 0c5.85 0 8.03 4.26 8.38 6.59ZM25.66 29.56a9.12 9.12 0 0 0-.02-2.97 8.85 8.85 0 0 0-8.68-7.38 8.85 8.85 0 0 0-8.68 7.4 9.11 9.11 0 0 0-.03 2.93 8.85 8.85 0 0 0 8.7 7.54c4.4 0 8.04-3.25 8.71-7.52Zm24.94 0a8.76 8.76 0 0 0-8.58-10.23 8.76 8.76 0 0 0-8.58 10.23 8.73 8.73 0 0 0 8.58 7.4c4.33 0 7.92-3.2 8.58-7.4Z"/><g style="display:var(--visibility-stars, block)"><path fill="var(--color-pink, #d22856)" d="M98.94 9.75a3.68 3.68 0 0 1-2.58-1.05 3.55 3.55 0 0 1-1.07-2.53c0 .95-.38 1.86-1.06 2.53a3.67 3.67 0 0 1-2.57 1.05c.96 0 1.89.38 2.57 1.05a3.55 3.55 0 0 1 1.06 2.53c0-.95.4-1.86 1.07-2.53a3.69 3.69 0 0 1 2.58-1.05Z"/><g fill="var(--color-glasses, #d22856)"><path d="M43.29 19.07h.73a2.47 2.47 0 0 0-.9-.89 2.52 2.52 0 0 0-1.24-.33c-.42 0-.83-.13-1.17-.37a1.98 1.98 0 0 1-.73-.96c-.72.2-1.42.48-2.1.8h.2a2 2 0 0 1 1.41.59c.38.37.6.87.6 1.4v.28a8.98 8.98 0 0 1 3.2-.52Z"/><path d="M60.73 27.65 55.54 6.57C55.18 4.24 52.93 0 46.9 0c-.4 0-.78.16-1.06.43a1.47 1.47 0 0 0-.44 1.05c0 .4.15.77.44 1.05a1.52 1.52 0 0 0 1.06.43c4.87 0 5.6 3.68 5.67 4.09l4.78 19.45h-2.1a11.72 11.72 0 0 0-1.72-4.78 11.95 11.95 0 0 0-3.6-3.63 2.5 2.5 0 0 0-1.12.9 2.5 2.5 0 0 0-.42 1.37v.26a9.15 9.15 0 0 1 2.92 3.2 8.97 8.97 0 0 1 1.1 4.17 9.04 9.04 0 0 1-.14 1.48 8.85 8.85 0 0 1-3.05 5.4A9.13 9.13 0 0 1 43.33 37a9.13 9.13 0 0 1-5.88-2.14 8.85 8.85 0 0 1-3.05-5.4 9.03 9.03 0 0 1-.14-1.48c.01-1.37.34-2.72.95-3.95a2.02 2.02 0 0 1-1.33-.62 1.96 1.96 0 0 1-.53-1.35.7.7 0 0 0-.2-.48 11.57 11.57 0 0 0-1.8 4.93H29.5a11.78 11.78 0 0 0-3.93-7.54 12.17 12.17 0 0 0-8.05-3.03 12.17 12.17 0 0 0-8.05 3.03 11.78 11.78 0 0 0-3.94 7.54H3.44l4.8-19.47c.05-.4.8-4.09 5.66-4.09.4 0 .78-.15 1.06-.43a1.47 1.47 0 0 0 0-2.1A1.52 1.52 0 0 0 13.9 0C7.87 0 5.62 4.25 5.26 6.57L.06 27.65A1.38 1.38 0 0 0 .3 28.9a1.43 1.43 0 0 0 1.2.53h4c.08.61.21 1.22.38 1.81a.73.73 0 0 0 .1-.35A2.02 2.02 0 0 1 8.5 29a8.84 8.84 0 0 1-.08-1.05c0-.5.05-.99.13-1.48a8.85 8.85 0 0 1 3.05-5.41 9.13 9.13 0 0 1 5.9-2.15c2.16 0 4.25.76 5.9 2.15a8.85 8.85 0 0 1 3.03 5.41c.09.5.13.99.13 1.48a8.87 8.87 0 0 1-2.66 6.27 9.18 9.18 0 0 1-6.38 2.62 9.15 9.15 0 0 1-5.45-1.7c-.36.3-.83.47-1.3.47a.76.76 0 0 0-.53.22.73.73 0 0 0-.22.53 1.95 1.95 0 0 1-.18.8 12.09 12.09 0 0 0 7.64 2.7 12.17 12.17 0 0 0 8.02-2.95 11.79 11.79 0 0 0 4-7.44h1.83a11.78 11.78 0 0 0 3.94 7.51A12.17 12.17 0 0 0 43.29 40c2.97 0 5.83-1.07 8.04-3.02a11.78 11.78 0 0 0 3.94-7.5h4.02a1.45 1.45 0 0 0 1.22-.54 1.38 1.38 0 0 0 .22-1.3Z"/></g><path fill="var(--color-glasses-stars, #283645)" d="M50.92 15.92a4.58 4.58 0 0 1-1.73-.34 4.51 4.51 0 0 1-1.46-.96 4.43 4.43 0 0 1-.98-1.44 4.37 4.37 0 0 1-.35-1.7 4.4 4.4 0 0 1-1.33 3.14 4.56 4.56 0 0 1-3.19 1.3 4.57 4.57 0 0 1 3.2 1.3 4.42 4.42 0 0 1 1.32 3.14 4.4 4.4 0 0 1 1.32-3.14 4.56 4.56 0 0 1 3.2-1.3Zm-12.85 3.46a2.79 2.79 0 0 1-1.95-.8 2.7 2.7 0 0 1-.8-1.91c0 .72-.3 1.4-.81 1.91a2.79 2.79 0 0 1-1.95.8c.73 0 1.43.29 1.95.8.51.5.8 1.2.8 1.9a2.7 2.7 0 0 1 .81-1.9 2.79 2.79 0 0 1 1.95-.8ZM10.78 33.64a2.79 2.79 0 0 1-1.93-.8 2.7 2.7 0 0 1-.8-1.92c0 .72-.3 1.41-.81 1.92a2.79 2.79 0 0 1-1.95.8c.73 0 1.43.3 1.95.8.51.5.8 1.2.8 1.92 0-.72.3-1.4.8-1.92a2.79 2.79 0 0 1 1.95-.8Z"/></g></svg>