<?xml version="1.0" encoding="utf-8"?><svg viewBox="0 0 320 276" xmlns="http://www.w3.org/2000/svg" xmlns:xlink="http://www.w3.org/1999/xlink"><style>:root>svg{display:none}:root>svg:target{display:block}</style><svg fill="none" viewBox="0 0 43 47" id="icon-android" xmlns="http://www.w3.org/2000/svg"><path d="M34.89 14.06H8.1V33.2c0 .92.34 1.8.96 2.47a3.7 3.7 0 002.43 1.16v7.46c.04.73.37 1.42.92 1.93a2.99 2.99 0 004.05 0c.55-.5.88-1.2.92-1.93v-7.44h8.24v7.44c.04.73.37 1.42.92 1.93a2.99 2.99 0 004.05 0c.55-.5.88-1.2.92-1.93v-7.46a3.7 3.7 0 002.43-1.16c.63-.67.97-1.55.97-2.46V14.4l-.03-.34zM2.95 15.74a2.93 2.93 0 012.95 2.89v12.4a2.84 2.84 0 01-.86 2.05 2.95 2.95 0 01-2.09.85c-.78 0-1.53-.3-2.09-.85A2.87 2.87 0 010 31.03v-12.4a2.84 2.84 0 01.87-2.04 2.95 2.95 0 012.08-.85zM40.06 15.74A2.93 2.93 0 0143 18.63v12.4a2.84 2.84 0 01-.86 2.05 2.95 2.95 0 01-2.08.85c-.79 0-1.54-.3-2.1-.85a2.87 2.87 0 01-.86-2.05v-12.4a2.84 2.84 0 01.87-2.04 2.95 2.95 0 012.09-.85zM8.17 12.06h26.57a10.4 10.4 0 00-3.26-7.3L34.05.5a.3.3 0 00-.12-.46.32.32 0 00-.42.1L31.09 4.3A16.7 16.7 0 0021.46.9a16.98 16.98 0 00-9.58 3.4L9.5.2a.32.32 0 00-.18-.16.33.33 0 00-.25 0 .31.31 0 00-.11.42l2.5 4.25a10.44 10.44 0 00-3.29 7.36zm17.7-5.21c0-.4.17-.78.45-1.06a1.55 1.55 0 012.17 0 1.49 1.49 0 010 2.12 1.55 1.55 0 01-2.17 0 1.49 1.49 0 01-.45-1.06zm-11.38 0c0-.4.16-.78.45-1.06a1.55 1.55 0 012.17 0 1.49 1.49 0 010 2.12 1.55 1.55 0 01-2.17 0 1.49 1.49 0 01-.45-1.06z" fill="#A4C639"/></svg><svg fill="none" viewBox="0 0 47 56" id="icon-apple" xmlns="http://www.w3.org/2000/svg"><path d="M39.24 29.74c.01 2.41.75 4.77 2.13 6.79A12.67 12.67 0 0047 41.06a29.8 29.8 0 01-4 7.96c-2.4 3.42-4.9 6.82-8.84 6.9-3.94.1-5.1-2.21-9.53-2.21-4.44 0-5.8 2.15-9.46 2.29-3.67.13-6.7-3.72-9.1-7.12-4.95-6.9-8.75-19.63-3.66-28.2 1.2-2.07 2.93-3.8 5.03-5.03a14.49 14.49 0 016.93-1.98c3.73-.07 7.25 2.43 9.53 2.43 2.28 0 6.56-3.01 11.06-2.57 2.08.08 4.12.62 5.95 1.58 1.84.96 3.41 2.32 4.61 3.98-.27.16-6.3 3.57-6.24 10.65h-.04zm-7.26-20.8a12.07 12.07 0 003-8.94c-3.3.3-6.36 1.82-8.55 4.24-1.86 2.1-3.5 5.45-3.05 8.66 3.25.25 6.55-1.6 8.57-3.94" fill="#fff"/></svg><svg fill="none" viewBox="0 0 22 41" id="icon-arrow" xmlns="http://www.w3.org/2000/svg"><path d="M19.96 20.5L.26 39.59a.82.82 0 00-.26.58.8.8 0 00.25.59.86.86 0 00.61.24.88.88 0 00.6-.24l20.29-19.67a.83.83 0 00.25-.59.81.81 0 00-.25-.59L1.47.24A.9.9 0 00.38.14a.84.84 0 00-.31.37.8.8 0 00.18.9l19.7 19.09z" fill="#283645"/></svg><svg fill="none" viewBox="0 0 22 16" id="icon-check-mark" xmlns="http://www.w3.org/2000/svg"><path d="M21.7.28a1.02 1.02 0 00-1.42 0L6.7 13.6 1.73 8.73a1.02 1.02 0 00-1.1-.22.99.99 0 00-.33 1.62l5.68 5.58a1.02 1.02 0 00.72.29c.27 0 .52-.1.71-.29L21.7 1.7A1 1 0 0022 1a.98.98 0 00-.3-.72z" fill="#D22856"/></svg><svg fill="none" viewBox="0 0 15 15" id="icon-check-mark-ellipse" xmlns="http://www.w3.org/2000/svg"><circle cx="7.5" cy="7.5" r="7.5" fill="#D22856"/></svg><svg fill="none" viewBox="0 0 23 23" id="icon-close-menu" xmlns="http://www.w3.org/2000/svg"><path d="M20.85 0L0 20.85 2.15 23 23 2.15 20.85 0z" fill="#fff"/><path d="M2.15 0L0 2.15 20.85 23 23 20.85 2.15 0z" fill="#fff"/></svg><svg fill="none" viewBox="0 0 32 32" id="icon-contrast" xmlns="http://www.w3.org/2000/svg"><path d="M16 4a12 12 0 110 24 12 12 0 010-24zm0-4a16 16 0 100 32 16 16 0 000-32zM16 24.29a8.52 8.52 0 000-17" fill="#283645"/></svg><svg fill="none" viewBox="0 0 44 44" id="icon-crop" xmlns="http://www.w3.org/2000/svg"><path d="M32 28h4V12a4 4 0 00-4-4H16v4h16v16zm-20 4V0H8v8H0v4h8v20a4 4 0 004 4h20v8h4v-8h8v-4H12z" fill="#D22856"/></svg><svg fill="none" viewBox="0 0 238 276" id="icon-effect" xmlns="http://www.w3.org/2000/svg"><path d="M211.31 81.63l4.28-4.29c6.16-6.17 7.29-15.15 2.5-19.94-4.8-4.79-13.76-3.68-19.91 2.5l-4.3 4.3a118.27 118.27 0 00-59.7-25.57v-7.67h6.13c8.7 0 15.84-6.97 15.84-15.48 0-8.5-7.13-15.48-15.84-15.48H97.72c-8.71 0-15.84 6.97-15.84 15.48 0 8.52 7.13 15.48 15.84 15.48h6.12v7.67a118.94 118.94 0 00-69.05 34 119.31 119.31 0 00-18.32 144.68 119.05 119.05 0 0058.38 50.19 118.84 118.84 0 0076.85 3.91 118.99 118.99 0 0063.18-43.99 119.28 119.28 0 00-3.57-145.8zm-92.3 163.32a87.9 87.9 0 01-48.88-14.85A88.23 88.23 0 0156.8 94.53a87.95 87.95 0 0195.89-19.1 88.01 88.01 0 0139.49 32.45 88.2 88.2 0 01-10.95 111.26 87.92 87.92 0 01-62.22 25.8z" fill="#DEDEDE"/><circle cx="119" cy="157" r="93" stroke="#D22856" stroke-width="16"/><path d="M115.9 191H68v-10.08l17.2-17.39c5.1-5.22 8.42-8.83 9.99-10.83a24.27 24.27 0 003.37-5.62c.69-1.72 1.03-3.5 1.03-5.35 0-2.75-.76-4.8-2.3-6.14-1.5-1.34-3.5-2.01-6.04-2.01-2.66 0-5.23.6-7.73 1.83a39.92 39.92 0 00-7.83 5.2l-7.88-9.33c3.38-2.87 6.17-4.9 8.4-6.1a30.07 30.07 0 017.26-2.71c2.62-.66 5.56-.99 8.81-.99 4.28 0 8.06.79 11.34 2.35a18.1 18.1 0 017.65 6.56 17.43 17.43 0 012.71 9.66c0 3.15-.56 6.12-1.68 8.9a33.4 33.4 0 01-5.16 8.49c-2.31 2.9-6.4 7.04-12.28 12.42l-8.81 8.3v.65h29.86V191zm56.4-14.2h-8.25V191h-14.16v-14.2h-29.25v-10.08l30.05-44.25h13.36v43.08h8.25v11.25zm-22.4-11.25v-11.63a222.2 222.2 0 01.6-14.86h-.38a52.2 52.2 0 01-4.17 7.5l-12.56 18.99h16.5z" fill="#D22856"/></svg><svg fill="none" viewBox="0 0 48 43" id="icon-fill" xmlns="http://www.w3.org/2000/svg"><path d="M33.12 17.88L15.24 0l-2.83 2.83 4.76 4.76L6.88 17.88a3 3 0 000 4.24l11 11a3 3 0 004.24 0l11-11a3 3 0 000-4.24zM10.41 20L20 10.42 29.59 20H10.41zM38 23s-4 4.33-4 7a4 4 0 108 0c0-2.67-4-7-4-7zM48 40H0v3h48v-3z" fill="#283645"/></svg><svg fill="none" viewBox="0 0 13 12" id="icon-heart" xmlns="http://www.w3.org/2000/svg"><path d="M6.47 12a.78.78 0 01-.58-.25C1.96 7.42 1.04 6.44.86 6.17A3.77 3.77 0 010 3.8c0-.73.22-1.44.63-2.05.4-.6.99-1.1 1.67-1.4A4.09 4.09 0 016.51.9a4.08 4.08 0 015.34.22A3.73 3.73 0 0113 3.8a3.4 3.4 0 01-.92 2.38l-5.04 5.56a.76.76 0 01-.57.25V12zm-4.4-6.72c.22.26 2.56 2.84 4.4 4.86l4.48-4.94c.36-.38.55-.88.54-1.4 0-.62-.26-1.21-.71-1.65a2.46 2.46 0 00-2.8-.43c-.35.16-.65.4-.88.69a.82.82 0 01-.61.28.76.76 0 01-.6-.3 2.43 2.43 0 00-1.95-.92 2.41 2.41 0 00-2.16 1.34 2.27 2.27 0 00.3 2.46v.01z" fill="#D22856"/></svg><svg fill="none" viewBox="0 0 18 13" id="icon-mail" xmlns="http://www.w3.org/2000/svg"><path d="M14.91 1.68c1.2-.93.91-1.68-.65-1.68H3.73c-1.56 0-1.85.76-.66 1.68l3.75 2.9a3.7 3.7 0 004.35 0l3.74-2.9z" fill="#D22856"/><path d="M11.91 6.5L9.7 8.25c-.08.04-.17.08-.26.1l-.1.05c-.1.05-.22.07-.34.09l-.33-.06-.12-.07a1.18 1.18 0 01-.24-.13L6.08 6.5l-3.9-2.97C1 2.6 0 3.03 0 4.48v5.86a2.48 2.48 0 00.82 1.87 2.87 2.87 0 002.01.79h12.32a3.04 3.04 0 002.02-.78 2.53 2.53 0 00.83-1.88V4.48c0-1.45-1-1.86-2.18-.93L11.91 6.5z" fill="#D22856"/></svg><svg fill="none" viewBox="0 0 27 27" id="icon-no" xmlns="http://www.w3.org/2000/svg"><path d="M15.64 13.5L26.55 2.6A1.5 1.5 0 0025.48 0c-.4 0-.78.16-1.07.44l-10.9 10.92L2.59.45A1.5 1.5 0 000 1.52c0 .4.16.78.44 1.07L11.37 13.5.45 24.4a1.5 1.5 0 000 2.15 1.51 1.51 0 002.14 0l10.91-10.9 10.9 10.9a1.52 1.52 0 001.91.2 1.51 1.51 0 00.23-2.33L15.65 13.5z" fill="#F25B26"/></svg><svg fill="none" viewBox="0 0 50 24" id="icon-open-menu" xmlns="http://www.w3.org/2000/svg"><path d="M1.14 0C.99 0 .84.02.7.07S.43.2.33.3A.88.88 0 000 1v2c0 .27.12.52.33.7.22.2.5.3.8.3h47.73c.15 0 .3-.02.44-.07s.27-.12.37-.22A.88.88 0 0050 3V1a.94.94 0 00-.33-.7c-.22-.2-.5-.3-.8-.3H1.13zm0 10c-.15 0-.3.02-.44.07s-.27.12-.37.22A.88.88 0 000 11v2c0 .27.12.52.33.7.22.2.5.3.8.3h47.73c.15 0 .3-.02.44-.07s.27-.12.37-.22A.88.88 0 0050 13v-2a.94.94 0 00-.33-.7c-.22-.2-.5-.3-.8-.3H1.13zm0 10c-.15 0-.3.02-.44.07s-.27.12-.37.22A.88.88 0 000 21v2c0 .27.12.52.33.7.22.2.5.3.8.3h47.73c.15 0 .3-.02.44-.07s.27-.12.37-.22A.88.88 0 0050 23v-2a.94.94 0 00-.33-.7c-.22-.2-.5-.3-.8-.3H1.13z" fill="#fff"/></svg><svg fill="none" viewBox="0 0 20 19" id="icon-phone" xmlns="http://www.w3.org/2000/svg"><path d="M10.04 0C6.46 0 2.91.6 1.58 1.82A6.4 6.4 0 000 5.87c0 .21.09.41.25.56.15.15.37.23.59.23l3.24-.25h.08a.86.86 0 00.58-.23.78.78 0 00.24-.56V4.05a.83.83 0 01.26-.62.92.92 0 01.65-.26h8.16c.24 0 .48.09.65.25.18.17.27.4.27.63V5.6a.83.83 0 00.82.79h.09l3.28.25a.88.88 0 00.6-.23.8.8 0 00.24-.56V5.7a6.46 6.46 0 00-1.56-3.86C17.2.6 13.62 0 10.04 0zm0 10.3c-.33 0-.65.1-.93.27a1.6 1.6 0 00-.61.71 1.5 1.5 0 00.36 1.73 1.76 1.76 0 001.82.34c.3-.12.57-.32.75-.58a1.53 1.53 0 00-.2-2 1.67 1.67 0 00-1.19-.47zM8.8 6.76v-.97c0-.25-.11-.5-.3-.68a1.07 1.07 0 00-1.44 0c-.2.18-.3.43-.3.68v.97l-5.73 5.69a1.93 1.93 0 00-.63 1.42v1.58c0 .42.18.83.49 1.12.31.3.74.47 1.18.47h.42v.97a.95.95 0 00.3.7 1.05 1.05 0 00.74.29 1.1 1.1 0 00.74-.29.99.99 0 00.3-.7v-.97h10.91v.97a1 1 0 00.3.7c.2.19.47.29.75.29.27 0 .54-.1.74-.29.2-.19.3-.44.3-.7v-.97h.42a1.75 1.75 0 001.19-.46 1.58 1.58 0 00.48-1.13v-1.58a1.84 1.84 0 00-.62-1.42l-5.65-5.69v-.97a.96.96 0 00-.3-.7 1.1 1.1 0 00-.74-.29c-.28 0-.54.1-.74.3-.2.18-.3.43-.3.7v.96H8.78zm1.25 1.93c.66 0 1.3.19 1.86.54.55.34.98.84 1.23 1.42a3.01 3.01 0 01-.73 3.45 3.52 3.52 0 01-3.64.69 3.31 3.31 0 01-1.5-1.17 3.05 3.05 0 01.42-4c.62-.6 1.47-.93 2.36-.93z" fill="#D22856"/></svg><svg fill="none" viewBox="0 0 79 63" id="icon-quotes" xmlns="http://www.w3.org/2000/svg"><path d="M35.15 6.97L30.84 0C28.39 1.48 0 12.06 0 39.13 0 46.27.34 63 18.98 63c11.24 0 14-10.15 14-13.42 0-21.73-21.47-14-21.47-14 0-17.8 19.88-26.51 23.64-28.6zM79 6.97L74.73 0C72.3 1.48 43.88 12.06 43.88 39.13c0 7.14.34 23.87 19 23.87 11.22 0 13.98-10.15 13.98-13.42 0-21.73-21.47-14-21.47-14 0-17.8 19.92-26.51 23.61-28.6z" fill="#EFEFEF"/></svg><svg fill="none" viewBox="0 0 18 18" id="icon-social-telegram" xmlns="http://www.w3.org/2000/svg"><path d="M16.7 3.2l-2.37 11.21c-.18.8-.65.99-1.31.62l-3.63-2.67-1.74 1.68c-.2.2-.36.35-.73.35l.26-3.69 6.71-6.06c.3-.26-.06-.4-.45-.14l-8.3 5.22L1.57 8.6c-.78-.24-.8-.77.16-1.15L15.7 2.07c.65-.24 1.21.14 1 1.13z" fill="#D22856"/></svg><svg fill="none" viewBox="0 0 18 18" id="icon-social-vk" xmlns="http://www.w3.org/2000/svg"><g clip-path="url(#rclip0_39371_58)"><path fill-rule="evenodd" clip-rule="evenodd" d="M17.59 4.71c.12-.4 0-.71-.6-.71h-1.97c-.5 0-.73.26-.85.55 0 0-1 2.4-2.42 3.95-.46.45-.67.6-.92.6-.13 0-.32-.15-.32-.56V4.71c0-.5-.13-.71-.55-.71h-3.1c-.3 0-.5.23-.5.44 0 .47.71.58.78 1.89v2.85c0 .62-.11.74-.36.74-.67 0-2.3-2.41-3.26-5.17-.18-.53-.37-.75-.87-.75H.68C.1 4 0 4.26 0 4.55c0 .5.67 3.05 3.1 6.41 1.64 2.3 3.93 3.54 6.01 3.54 1.26 0 1.41-.28 1.41-.75V12c0-.55.12-.66.52-.66.29 0 .79.14 1.96 1.25 1.33 1.31 1.55 1.9 2.3 1.9h1.97c.57 0 .85-.28.68-.82a8.36 8.36 0 00-1.66-2.27c-.46-.53-1.14-1.1-1.35-1.4-.3-.36-.21-.52 0-.85 0 0 2.4-3.32 2.65-4.45z" fill="#D22856"/></g><defs><clipPath id="rclip0_39371_58"><path fill="#fff" d="M0 0h18v18H0z"/></clipPath></defs></svg><svg fill="none" viewBox="0 0 18 18" id="icon-social-youtube" xmlns="http://www.w3.org/2000/svg"><path d="M3.83 15.8a1.25 1.25 0 01-1.28.04 1.1 1.1 0 01-.44-.46.97.97 0 01-.1-.6V4.22c-.03-.2 0-.41.1-.6.1-.2.24-.35.44-.46a1.26 1.26 0 011.28.03l12.4 5.5c1.03.45 1.03 1.17 0 1.62l-12.4 5.5z" fill="#D22856"/></svg><svg fill="none" viewBox="0 0 320 123" id="icon-triangle-map" xmlns="http://www.w3.org/2000/svg"><path d="M160 123L-440 0H760L160 123z" fill="#fff"/></svg><svg fill="none" viewBox="0 0 44 41" id="icon-windows" xmlns="http://www.w3.org/2000/svg"><path d="M20.9 19.52H0V0h20.9v19.52z" fill="#F05423"/><path d="M44 19.52H23.1V0H44v19.52z" fill="#84C441"/><path d="M20.9 41H0V21.48h20.9V41z" fill="#2DABE2"/><path d="M44 41H23.1V21.48H44V41z" fill="#F9BC15"/></svg><svg fill="none" viewBox="0 0 31 21" id="icon-yes" xmlns="http://www.w3.org/2000/svg"><path d="M30.56.43a1.54 1.54 0 00-1.1-.43 1.6 1.6 0 00-1.08.43l-18 17.07-7.8-7.39a1.58 1.58 0 00-2.13.04c-.28.26-.44.62-.45 1 0 .37.14.74.41 1.01l8.88 8.41a1.53 1.53 0 001.08.43c.41 0 .8-.15 1.09-.43l19.1-18.09a1.42 1.42 0 000-2.05z" fill="#3DC644"/></svg></svg>